<mxfile host="app.diagrams.net" modified="2022-06-01T10:29:02.686Z" agent="5.0 (Windows NT 10.0; Win64; x64) AppleWebKit/537.36 (KHTML, like Gecko) Chrome/100.0.4896.127 Safari/537.36 OPR/86.0.4363.64" etag="wlAZTTBvmHJ3BcFPU2yD" version="18.2.0" type="github">
  <diagram id="XQN9u1KhEPDjyjl1WLuF" name="Page-1">
    <mxGraphModel dx="1237" dy="588" grid="1" gridSize="10" guides="1" tooltips="1" connect="1" arrows="1" fold="1" page="1" pageScale="1" pageWidth="827" pageHeight="1169" math="0" shadow="0">
      <root>
        <mxCell id="0" />
        <mxCell id="1" parent="0" />
        <mxCell id="-FyKrK1amYJgzQvETi4p-1" value="Информационная система" style="rounded=0;whiteSpace=wrap;html=1;" vertex="1" parent="1">
          <mxGeometry x="320" y="80" width="160" height="60" as="geometry" />
        </mxCell>
        <mxCell id="-FyKrK1amYJgzQvETi4p-2" value="Модели" style="rounded=0;whiteSpace=wrap;html=1;" vertex="1" parent="1">
          <mxGeometry x="120" y="160" width="120" height="40" as="geometry" />
        </mxCell>
        <mxCell id="-FyKrK1amYJgzQvETi4p-3" value="Библиотеки" style="rounded=0;whiteSpace=wrap;html=1;" vertex="1" parent="1">
          <mxGeometry x="560" y="160" width="120" height="40" as="geometry" />
        </mxCell>
        <mxCell id="-FyKrK1amYJgzQvETi4p-4" value="React" style="rounded=0;whiteSpace=wrap;html=1;" vertex="1" parent="1">
          <mxGeometry x="590" y="210" width="130" height="20" as="geometry" />
        </mxCell>
        <mxCell id="-FyKrK1amYJgzQvETi4p-5" value="nestjs/platform-express" style="rounded=0;whiteSpace=wrap;html=1;" vertex="1" parent="1">
          <mxGeometry x="590" y="330" width="130" height="20" as="geometry" />
        </mxCell>
        <mxCell id="-FyKrK1amYJgzQvETi4p-6" value="passport" style="rounded=0;whiteSpace=wrap;html=1;" vertex="1" parent="1">
          <mxGeometry x="590" y="420" width="130" height="20" as="geometry" />
        </mxCell>
        <mxCell id="-FyKrK1amYJgzQvETi4p-7" value="nestjs/core" style="rounded=0;whiteSpace=wrap;html=1;" vertex="1" parent="1">
          <mxGeometry x="590" y="240" width="130" height="20" as="geometry" />
        </mxCell>
        <mxCell id="-FyKrK1amYJgzQvETi4p-8" value="nestjs/passport" style="rounded=0;whiteSpace=wrap;html=1;" vertex="1" parent="1">
          <mxGeometry x="590" y="270" width="130" height="20" as="geometry" />
        </mxCell>
        <mxCell id="-FyKrK1amYJgzQvETi4p-9" value="nestjs/jwt" style="rounded=0;whiteSpace=wrap;html=1;" vertex="1" parent="1">
          <mxGeometry x="590" y="300" width="130" height="20" as="geometry" />
        </mxCell>
        <mxCell id="-FyKrK1amYJgzQvETi4p-10" value="nestjs/typeorm" style="rounded=0;whiteSpace=wrap;html=1;" vertex="1" parent="1">
          <mxGeometry x="590" y="360" width="130" height="20" as="geometry" />
        </mxCell>
        <mxCell id="-FyKrK1amYJgzQvETi4p-11" value="bcrypt" style="rounded=0;whiteSpace=wrap;html=1;" vertex="1" parent="1">
          <mxGeometry x="590" y="390" width="130" height="20" as="geometry" />
        </mxCell>
        <mxCell id="-FyKrK1amYJgzQvETi4p-12" value="passport-jwt" style="rounded=0;whiteSpace=wrap;html=1;" vertex="1" parent="1">
          <mxGeometry x="590" y="450" width="130" height="20" as="geometry" />
        </mxCell>
        <mxCell id="-FyKrK1amYJgzQvETi4p-13" value="" style="endArrow=none;html=1;rounded=0;" edge="1" parent="1">
          <mxGeometry width="50" height="50" relative="1" as="geometry">
            <mxPoint x="570" y="550" as="sourcePoint" />
            <mxPoint x="570" y="200" as="targetPoint" />
          </mxGeometry>
        </mxCell>
        <mxCell id="-FyKrK1amYJgzQvETi4p-14" value="" style="endArrow=none;html=1;rounded=0;exitX=0;exitY=0.5;exitDx=0;exitDy=0;" edge="1" parent="1" source="-FyKrK1amYJgzQvETi4p-12">
          <mxGeometry width="50" height="50" relative="1" as="geometry">
            <mxPoint x="520" y="380" as="sourcePoint" />
            <mxPoint x="570" y="460.0000000000001" as="targetPoint" />
          </mxGeometry>
        </mxCell>
        <mxCell id="-FyKrK1amYJgzQvETi4p-15" value="" style="endArrow=none;html=1;rounded=0;exitX=0;exitY=0.5;exitDx=0;exitDy=0;" edge="1" parent="1" source="-FyKrK1amYJgzQvETi4p-6">
          <mxGeometry width="50" height="50" relative="1" as="geometry">
            <mxPoint x="610" y="480" as="sourcePoint" />
            <mxPoint x="570" y="430.0000000000001" as="targetPoint" />
          </mxGeometry>
        </mxCell>
        <mxCell id="-FyKrK1amYJgzQvETi4p-16" value="" style="endArrow=none;html=1;rounded=0;exitX=0;exitY=0.5;exitDx=0;exitDy=0;" edge="1" parent="1" source="-FyKrK1amYJgzQvETi4p-10">
          <mxGeometry width="50" height="50" relative="1" as="geometry">
            <mxPoint x="620" y="490" as="sourcePoint" />
            <mxPoint x="570" y="370" as="targetPoint" />
          </mxGeometry>
        </mxCell>
        <mxCell id="-FyKrK1amYJgzQvETi4p-17" value="" style="endArrow=none;html=1;rounded=0;exitX=0;exitY=0.5;exitDx=0;exitDy=0;" edge="1" parent="1" source="-FyKrK1amYJgzQvETi4p-11">
          <mxGeometry width="50" height="50" relative="1" as="geometry">
            <mxPoint x="630" y="500" as="sourcePoint" />
            <mxPoint x="570" y="400" as="targetPoint" />
          </mxGeometry>
        </mxCell>
        <mxCell id="-FyKrK1amYJgzQvETi4p-18" value="" style="endArrow=none;html=1;rounded=0;exitX=0;exitY=0.5;exitDx=0;exitDy=0;" edge="1" parent="1" source="-FyKrK1amYJgzQvETi4p-5">
          <mxGeometry width="50" height="50" relative="1" as="geometry">
            <mxPoint x="640" y="510" as="sourcePoint" />
            <mxPoint x="570" y="340" as="targetPoint" />
          </mxGeometry>
        </mxCell>
        <mxCell id="-FyKrK1amYJgzQvETi4p-19" value="" style="endArrow=none;html=1;rounded=0;exitX=0;exitY=0.5;exitDx=0;exitDy=0;" edge="1" parent="1" source="-FyKrK1amYJgzQvETi4p-9">
          <mxGeometry width="50" height="50" relative="1" as="geometry">
            <mxPoint x="650" y="520" as="sourcePoint" />
            <mxPoint x="570" y="310" as="targetPoint" />
          </mxGeometry>
        </mxCell>
        <mxCell id="-FyKrK1amYJgzQvETi4p-20" value="" style="endArrow=none;html=1;rounded=0;exitX=0;exitY=0.5;exitDx=0;exitDy=0;" edge="1" parent="1" source="-FyKrK1amYJgzQvETi4p-8">
          <mxGeometry width="50" height="50" relative="1" as="geometry">
            <mxPoint x="660" y="530" as="sourcePoint" />
            <mxPoint x="570" y="280" as="targetPoint" />
          </mxGeometry>
        </mxCell>
        <mxCell id="-FyKrK1amYJgzQvETi4p-21" value="" style="endArrow=none;html=1;rounded=0;exitX=0;exitY=0.5;exitDx=0;exitDy=0;" edge="1" parent="1" source="-FyKrK1amYJgzQvETi4p-7">
          <mxGeometry width="50" height="50" relative="1" as="geometry">
            <mxPoint x="670" y="540" as="sourcePoint" />
            <mxPoint x="570" y="250" as="targetPoint" />
          </mxGeometry>
        </mxCell>
        <mxCell id="-FyKrK1amYJgzQvETi4p-22" value="" style="endArrow=none;html=1;rounded=0;exitX=0;exitY=0.5;exitDx=0;exitDy=0;" edge="1" parent="1" source="-FyKrK1amYJgzQvETi4p-4">
          <mxGeometry width="50" height="50" relative="1" as="geometry">
            <mxPoint x="680" y="550" as="sourcePoint" />
            <mxPoint x="570" y="220" as="targetPoint" />
          </mxGeometry>
        </mxCell>
        <mxCell id="-FyKrK1amYJgzQvETi4p-23" value="" style="rounded=0;whiteSpace=wrap;html=1;" vertex="1" parent="1">
          <mxGeometry x="150" y="210" width="170" height="180" as="geometry" />
        </mxCell>
        <mxCell id="-FyKrK1amYJgzQvETi4p-24" value="&lt;pre style=&quot;text-align: center;&quot;&gt;&lt;font face=&quot;Helvetica&quot;&gt;&lt;span style=&quot;font-size: 14px;&quot;&gt;&lt;span style=&quot;white-space: pre;&quot;&gt;	&lt;/span&gt;   Контроллеры&lt;/span&gt;&lt;/font&gt;&lt;/pre&gt;&lt;pre style=&quot;&quot;&gt;&lt;font face=&quot;Helvetica&quot; style=&quot;font-size: 10px;&quot;&gt;&lt;font style=&quot;&quot;&gt;auth.controller.ts&lt;br&gt;&lt;/font&gt;&lt;font style=&quot;&quot;&gt;clear.controller.ts&lt;br&gt;&lt;/font&gt;&lt;font style=&quot;&quot;&gt;excel.controller.ts&lt;br&gt;&lt;/font&gt;&lt;font style=&quot;&quot;&gt;groups&lt;/font&gt;.controller.ts&lt;font style=&quot;&quot;&gt;&lt;br&gt;&lt;/font&gt;&lt;font style=&quot;&quot;&gt;role&lt;/font&gt;.controller.ts&lt;font style=&quot;&quot;&gt;&lt;br&gt;&lt;/font&gt;&lt;font style=&quot;&quot;&gt;subjects&lt;/font&gt;.controller.ts&lt;font style=&quot;&quot;&gt;&lt;br&gt;&lt;/font&gt;&lt;font style=&quot;&quot;&gt;teachers&lt;/font&gt;.controller.ts&lt;font style=&quot;&quot;&gt;&lt;br&gt;&lt;/font&gt;&lt;font style=&quot;&quot;&gt;timetable&lt;/font&gt;.controller.ts&lt;font style=&quot;&quot;&gt;&lt;br&gt;&lt;/font&gt;&lt;font style=&quot;&quot;&gt;user&lt;/font&gt;.controller.ts&lt;font style=&quot;&quot;&gt;&lt;br&gt;&lt;/font&gt;&lt;font style=&quot;&quot;&gt;mistake-finder&lt;/font&gt;.controller.ts&lt;/font&gt;&lt;br&gt;&lt;/pre&gt;" style="text;html=1;strokeColor=none;fillColor=none;spacing=5;spacingTop=-20;whiteSpace=wrap;overflow=hidden;rounded=0;" vertex="1" parent="1">
          <mxGeometry x="150" y="210" width="170" height="180" as="geometry" />
        </mxCell>
        <mxCell id="-FyKrK1amYJgzQvETi4p-25" value="" style="endArrow=none;html=1;rounded=0;fontSize=10;entryX=0.08;entryY=0.997;entryDx=0;entryDy=0;entryPerimeter=0;" edge="1" parent="1" target="-FyKrK1amYJgzQvETi4p-2">
          <mxGeometry width="50" height="50" relative="1" as="geometry">
            <mxPoint x="130" y="640" as="sourcePoint" />
            <mxPoint x="130" y="200" as="targetPoint" />
          </mxGeometry>
        </mxCell>
        <mxCell id="-FyKrK1amYJgzQvETi4p-26" value="" style="endArrow=none;html=1;rounded=0;fontSize=10;" edge="1" parent="1">
          <mxGeometry width="50" height="50" relative="1" as="geometry">
            <mxPoint x="130" y="320" as="sourcePoint" />
            <mxPoint x="150" y="320" as="targetPoint" />
          </mxGeometry>
        </mxCell>
        <mxCell id="-FyKrK1amYJgzQvETi4p-27" value="" style="endArrow=classic;html=1;rounded=0;fontSize=10;exitX=0.5;exitY=1;exitDx=0;exitDy=0;entryX=0.5;entryY=0;entryDx=0;entryDy=0;" edge="1" parent="1" source="-FyKrK1amYJgzQvETi4p-1" target="-FyKrK1amYJgzQvETi4p-2">
          <mxGeometry width="50" height="50" relative="1" as="geometry">
            <mxPoint x="360" y="310" as="sourcePoint" />
            <mxPoint x="410" y="260" as="targetPoint" />
          </mxGeometry>
        </mxCell>
        <mxCell id="-FyKrK1amYJgzQvETi4p-28" value="" style="endArrow=classic;html=1;rounded=0;fontSize=10;entryX=0.5;entryY=0;entryDx=0;entryDy=0;" edge="1" parent="1" target="-FyKrK1amYJgzQvETi4p-3">
          <mxGeometry width="50" height="50" relative="1" as="geometry">
            <mxPoint x="400" y="140" as="sourcePoint" />
            <mxPoint x="410" y="260" as="targetPoint" />
          </mxGeometry>
        </mxCell>
        <mxCell id="-FyKrK1amYJgzQvETi4p-29" value="pg" style="rounded=0;whiteSpace=wrap;html=1;" vertex="1" parent="1">
          <mxGeometry x="590" y="480" width="130" height="20" as="geometry" />
        </mxCell>
        <mxCell id="-FyKrK1amYJgzQvETi4p-30" value="" style="endArrow=none;html=1;rounded=0;exitX=0;exitY=0.5;exitDx=0;exitDy=0;" edge="1" parent="1" source="-FyKrK1amYJgzQvETi4p-29">
          <mxGeometry width="50" height="50" relative="1" as="geometry">
            <mxPoint x="520" y="410" as="sourcePoint" />
            <mxPoint x="570" y="490" as="targetPoint" />
          </mxGeometry>
        </mxCell>
        <mxCell id="-FyKrK1amYJgzQvETi4p-31" value="typeorm" style="rounded=0;whiteSpace=wrap;html=1;" vertex="1" parent="1">
          <mxGeometry x="590" y="510" width="130" height="20" as="geometry" />
        </mxCell>
        <mxCell id="-FyKrK1amYJgzQvETi4p-32" value="" style="endArrow=none;html=1;rounded=0;exitX=0;exitY=0.5;exitDx=0;exitDy=0;" edge="1" parent="1" source="-FyKrK1amYJgzQvETi4p-31">
          <mxGeometry width="50" height="50" relative="1" as="geometry">
            <mxPoint x="520" y="440" as="sourcePoint" />
            <mxPoint x="570" y="520" as="targetPoint" />
          </mxGeometry>
        </mxCell>
        <mxCell id="-FyKrK1amYJgzQvETi4p-33" value="xlsx" style="rounded=0;whiteSpace=wrap;html=1;" vertex="1" parent="1">
          <mxGeometry x="590" y="540" width="130" height="20" as="geometry" />
        </mxCell>
        <mxCell id="-FyKrK1amYJgzQvETi4p-34" value="" style="endArrow=none;html=1;rounded=0;exitX=0;exitY=0.5;exitDx=0;exitDy=0;" edge="1" parent="1" source="-FyKrK1amYJgzQvETi4p-33">
          <mxGeometry width="50" height="50" relative="1" as="geometry">
            <mxPoint x="520" y="470" as="sourcePoint" />
            <mxPoint x="570" y="550" as="targetPoint" />
          </mxGeometry>
        </mxCell>
        <mxCell id="-FyKrK1amYJgzQvETi4p-36" value="" style="rounded=0;whiteSpace=wrap;html=1;" vertex="1" parent="1">
          <mxGeometry x="150" y="400" width="170" height="120" as="geometry" />
        </mxCell>
        <mxCell id="-FyKrK1amYJgzQvETi4p-37" value="&lt;pre style=&quot;text-align: center;&quot;&gt;&lt;font face=&quot;Helvetica&quot;&gt;&lt;span style=&quot;font-size: 14px;&quot;&gt;&lt;span style=&quot;white-space: pre;&quot;&gt;	&lt;/span&gt;     Модели&lt;/span&gt;&lt;/font&gt;&lt;/pre&gt;&lt;pre style=&quot;&quot;&gt;&lt;font face=&quot;Helvetica&quot; style=&quot;font-size: 10px;&quot;&gt;&lt;font style=&quot;&quot;&gt;teacher.entity.ts&lt;br&gt;&lt;/font&gt;&lt;font style=&quot;&quot;&gt;group&lt;/font&gt;.entity.ts&lt;font style=&quot;&quot;&gt;&lt;br&gt;&lt;/font&gt;&lt;font style=&quot;&quot;&gt;role&lt;/font&gt;.entity.ts&lt;font style=&quot;&quot;&gt;&lt;br&gt;&lt;/font&gt;&lt;font style=&quot;&quot;&gt;subkect&lt;/font&gt;.entity.ts&lt;font style=&quot;&quot;&gt;&lt;br&gt;&lt;/font&gt;&lt;font style=&quot;&quot;&gt;timetable&lt;/font&gt;.entity.ts&lt;font style=&quot;&quot;&gt;&lt;br&gt;&lt;/font&gt;&lt;font style=&quot;&quot;&gt;user&lt;/font&gt;.entity.ts&lt;/font&gt;&lt;/pre&gt;" style="text;html=1;strokeColor=none;fillColor=none;spacing=5;spacingTop=-20;whiteSpace=wrap;overflow=hidden;rounded=0;" vertex="1" parent="1">
          <mxGeometry x="150" y="400" width="170" height="120" as="geometry" />
        </mxCell>
        <mxCell id="-FyKrK1amYJgzQvETi4p-39" value="" style="rounded=0;whiteSpace=wrap;html=1;" vertex="1" parent="1">
          <mxGeometry x="150" y="530" width="170" height="210" as="geometry" />
        </mxCell>
        <mxCell id="-FyKrK1amYJgzQvETi4p-40" value="&lt;pre style=&quot;text-align: center;&quot;&gt;&lt;font face=&quot;Helvetica&quot; style=&quot;font-size: 14px; font-weight: normal;&quot;&gt;  Сервисы&lt;/font&gt;&lt;/pre&gt;&lt;pre style=&quot;&quot;&gt;&lt;font face=&quot;Helvetica&quot; style=&quot;font-size: 10px;&quot;&gt;&lt;font style=&quot;&quot;&gt;excel.service.ts&lt;br&gt;&lt;/font&gt;&lt;font style=&quot;&quot;&gt;excel-helper&lt;/font&gt;.service.ts&lt;font style=&quot;&quot;&gt;&lt;br&gt;&lt;/font&gt;&lt;font style=&quot;&quot;&gt;excel-repository&lt;/font&gt;.service.ts&lt;font style=&quot;&quot;&gt;&lt;br&gt;&lt;/font&gt;&lt;font style=&quot;&quot;&gt;timetable-file-generator&lt;/font&gt;.service.ts&lt;font style=&quot;&quot;&gt;&lt;br&gt;&lt;/font&gt;&lt;font style=&quot;&quot;&gt;groups&lt;/font&gt;.service.ts&lt;font style=&quot;&quot;&gt;&lt;br&gt;&lt;/font&gt;&lt;font style=&quot;&quot;&gt;hash&lt;/font&gt;.service.ts&lt;font style=&quot;&quot;&gt;&lt;br&gt;&lt;/font&gt;&lt;font style=&quot;&quot;&gt;mistake-finder&lt;/font&gt;.service.ts&lt;font style=&quot;&quot;&gt;&lt;br&gt;&lt;/font&gt;&lt;font style=&quot;&quot;&gt;roles&lt;/font&gt;.service.ts&lt;font style=&quot;&quot;&gt;&lt;br&gt;&lt;/font&gt;&lt;font style=&quot;&quot;&gt;subjects&lt;/font&gt;.service.ts&lt;font style=&quot;&quot;&gt;&lt;br&gt;&lt;/font&gt;&lt;font style=&quot;&quot;&gt;teachers&lt;/font&gt;.service.ts&lt;font style=&quot;&quot;&gt;&lt;br&gt;&lt;/font&gt;&lt;font style=&quot;&quot;&gt;timetables&lt;/font&gt;.service.ts&lt;font style=&quot;&quot;&gt;&lt;br&gt;&lt;/font&gt;&lt;font style=&quot;&quot;&gt;users&lt;/font&gt;.service.ts&lt;/font&gt;&lt;/pre&gt;" style="text;html=1;strokeColor=none;fillColor=none;spacing=5;spacingTop=-20;whiteSpace=wrap;overflow=hidden;rounded=0;" vertex="1" parent="1">
          <mxGeometry x="150" y="530" width="160" height="210" as="geometry" />
        </mxCell>
        <mxCell id="-FyKrK1amYJgzQvETi4p-41" value="" style="endArrow=none;html=1;rounded=0;fontFamily=Helvetica;fontSize=10;entryX=0;entryY=0.5;entryDx=0;entryDy=0;" edge="1" parent="1" target="-FyKrK1amYJgzQvETi4p-37">
          <mxGeometry width="50" height="50" relative="1" as="geometry">
            <mxPoint x="130" y="460" as="sourcePoint" />
            <mxPoint x="600" y="470" as="targetPoint" />
          </mxGeometry>
        </mxCell>
        <mxCell id="-FyKrK1amYJgzQvETi4p-42" value="" style="endArrow=none;html=1;rounded=0;fontFamily=Helvetica;fontSize=10;" edge="1" parent="1">
          <mxGeometry width="50" height="50" relative="1" as="geometry">
            <mxPoint x="130" y="640" as="sourcePoint" />
            <mxPoint x="150" y="640" as="targetPoint" />
          </mxGeometry>
        </mxCell>
      </root>
    </mxGraphModel>
  </diagram>
</mxfile>
